# This file uses centimeters as units for non-parametric coordinates.

mtllib cone.mtl
g default
v 0.951057 0.000000 -0.309017
v 0.809018 0.000000 -0.587786
v 0.587786 0.000000 -0.809017
v 0.309017 0.000000 -0.951057
v 0.000000 0.000000 -1.000000
v -0.309017 0.000000 -0.951057
v -0.587785 0.000000 -0.809017
v -0.809017 0.000000 -0.587785
v -0.951057 0.000000 -0.309017
v -1.000000 0.000000 0.000000
v -0.951057 0.000000 0.309017
v -0.809017 0.000000 0.587785
v -0.587785 0.000000 0.809017
v -0.309017 0.000000 0.951057
v -0.000000 0.000000 1.000000
v 0.309017 0.000000 0.951057
v 0.587785 0.000000 0.809017
v 0.809017 0.000000 0.587785
v 0.951057 0.000000 0.309017
v 1.000000 0.000000 0.000000
v 0.000000 4.000000 0.000000
vt 0.737764 0.172746
vt 0.702254 0.103054
vt 0.646946 0.047746
vt 0.577254 0.012236
vt 0.500000 -0.000000
vt 0.422746 0.012236
vt 0.353054 0.047746
vt 0.297746 0.103054
vt 0.262236 0.172746
vt 0.250000 0.250000
vt 0.262236 0.327254
vt 0.297746 0.396946
vt 0.353054 0.452254
vt 0.422746 0.487764
vt 0.500000 0.500000
vt 0.577254 0.487764
vt 0.646946 0.452254
vt 0.702254 0.396946
vt 0.737764 0.327254
vt 0.750000 0.250000
vt 0.654508 0.000000
vt 0.793893 0.000000
vt 0.500000 1.000000
vt 0.904509 0.000000
vt 0.975528 0.000000
vt 1.000000 0.000000
vt 0.975528 0.000000
vt 0.904508 0.000000
vt 0.793893 0.000000
vt 0.654508 0.000000
vt 0.500000 0.000000
vt 0.345491 0.000000
vt 0.206107 0.000000
vt 0.095491 0.000000
vt 0.024472 0.000000
vt -0.000000 0.000000
vt 0.024472 0.000000
vt 0.095491 0.000000
vt 0.206107 0.000000
vt 0.345491 0.000000
vt 0.500000 0.000000
vn 0.000000 -1.000000 -0.000000
vn 0.000000 -1.000000 -0.000000
vn 0.000000 -1.000000 -0.000000
vn 0.000000 -1.000000 -0.000000
vn 0.000000 -1.000000 -0.000000
vn 0.000000 -1.000000 -0.000000
vn 0.000000 -1.000000 -0.000000
vn 0.000000 -1.000000 -0.000000
vn 0.000000 -1.000000 -0.000000
vn 0.000000 -1.000000 -0.000000
vn 0.000000 -1.000000 -0.000000
vn 0.000000 -1.000000 -0.000000
vn 0.000000 -1.000000 -0.000000
vn 0.000000 -1.000000 -0.000000
vn 0.000000 -1.000000 -0.000000
vn 0.000000 -1.000000 -0.000000
vn 0.000000 -1.000000 -0.000000
vn 0.000000 -1.000000 -0.000000
vn 0.000000 -1.000000 -0.000000
vn 0.000000 -1.000000 -0.000000
vn 0.922661 0.242536 -0.299790
vn 0.784862 0.242536 -0.570235
vn -0.000000 1.000000 -0.000002
vn 0.570235 0.242536 -0.784862
vn 0.299790 0.242536 -0.922660
vn -0.000000 0.242536 -0.970142
vn -0.299791 0.242536 -0.922660
vn -0.570236 0.242536 -0.784862
vn -0.784862 0.242536 -0.570235
vn -0.922660 0.242536 -0.299790
vn -0.970142 0.242536 0.000000
vn -0.922660 0.242536 0.299791
vn -0.784862 0.242536 0.570236
vn -0.570235 0.242536 0.784862
vn -0.299790 0.242536 0.922660
vn 0.000000 0.242536 0.970142
vn 0.299791 0.242536 0.922660
vn 0.570235 0.242536 0.784862
vn 0.784862 0.242536 0.570235
vn 0.922660 0.242536 0.299790
vn 0.970142 0.242536 0.000001
s off
g pCone1
usemtl initialShadingGroup
f 1/1/1 20/20/2 19/19/3 18/18/4 17/17/5 16/16/6 15/15/7 14/14/8 13/13/9 12/12/10 11/11/11 10/10/12 9/9/13 8/8/14 7/7/15 6/6/16 5/5/17 4/4/18 3/3/19 2/2/20
s 1
f 1/21/21 2/22/22 21/23/23
f 2/22/22 3/24/24 21/23/23
f 3/24/24 4/25/25 21/23/23
f 4/25/25 5/26/26 21/23/23
f 5/26/26 6/27/27 21/23/23
f 6/27/27 7/28/28 21/23/23
f 7/28/28 8/29/29 21/23/23
f 8/29/29 9/30/30 21/23/23
f 9/30/30 10/31/31 21/23/23
f 10/31/31 11/32/32 21/23/23
f 11/32/32 12/33/33 21/23/23
f 12/33/33 13/34/34 21/23/23
f 13/34/34 14/35/35 21/23/23
f 14/35/35 15/36/36 21/23/23
f 15/36/36 16/37/37 21/23/23
f 16/37/37 17/38/38 21/23/23
f 17/38/38 18/39/39 21/23/23
f 18/39/39 19/40/40 21/23/23
f 19/40/40 20/41/41 21/23/23
f 20/41/41 1/21/21 21/23/23
